<?xml version="1.0" standalone="no"?>
<!DOCTYPE svg PUBLIC "-//W3C//DTD SVG 20010904//EN"
 "http://www.w3.org/TR/2001/REC-SVG-20010904/DTD/svg10.dtd">
<svg version="1.0" xmlns="http://www.w3.org/2000/svg"
 width="300.000000pt" height="190.000000pt" viewBox="0 0 300.000000 190.000000"
 preserveAspectRatio="xMidYMid meet">
<metadata>
Created by potrace 1.10, written by Peter Selinger 2001-2011
</metadata>
<g transform="translate(0.000000,190.000000) scale(0.100000,-0.100000)"
fill="#000000" stroke="none">
<path d="M2045 1778 c-2 -7 -9 -40 -15 -73 -24 -123 -115 -419 -137 -444 -2
-3 -9 1 -15 7 -35 35 -98 -4 -122 -75 -37 -109 -6 -180 64 -143 17 9 104 142
108 165 1 6 7 25 13 43 22 66 20 21 -5 -115 -37 -199 -41 -240 -26 -258 23
-27 39 -18 33 19 -7 43 24 239 93 580 30 149 54 273 54 278 0 4 -9 12 -20 18
-15 8 -21 8 -25 -2z m-165 -546 c0 -4 -21 -43 -47 -87 -33 -57 -48 -74 -51
-61 -6 27 18 103 40 131 18 23 58 35 58 17z"/>
<path d="M942 1685 c-67 -57 -133 -323 -111 -454 10 -65 36 -128 62 -149 12
-11 10 -25 -18 -101 -61 -170 -118 -244 -172 -225 -62 21 -79 125 -53 339 9
71 9 100 1 108 -18 18 -39 -2 -94 -92 -102 -165 -120 -139 -107 149 5 110 -7
153 -51 175 -69 36 -147 -1 -192 -90 -23 -45 -31 -101 -17 -110 15 -9 30 12
30 43 0 37 38 101 73 122 43 26 91 26 118 -1 21 -21 22 -27 16 -183 -5 -115
-3 -171 6 -196 24 -70 72 -46 141 71 27 44 52 77 56 72 4 -4 2 -44 -6 -88 -26
-160 -15 -261 35 -318 76 -84 173 -4 246 205 l27 76 52 0 c29 0 63 5 77 12 43
22 79 63 79 89 0 23 -2 22 -38 -17 -42 -46 -76 -62 -129 -62 -29 0 -34 3 -28
18 22 57 86 288 96 346 21 125 -2 263 -46 280 -22 8 -20 9 -53 -19z m68 -41
c13 -33 12 -166 0 -224 -23 -101 -95 -320 -105 -317 -5 2 -18 26 -27 53 -44
126 4 403 85 492 26 28 35 28 47 -4z"/>
<path d="M2145 1373 c-39 -20 -113 -91 -131 -125 -16 -32 -18 -91 -4 -119 17
-30 67 -51 103 -43 42 9 126 51 156 78 l24 21 -6 -25 c-19 -79 -19 -107 -1
-114 22 -9 30 5 38 67 7 51 30 102 64 146 18 22 22 23 50 12 37 -15 81 -4 127
33 42 34 26 41 -26 12 l-44 -25 -21 20 c-26 24 -50 20 -93 -17 l-29 -24 10 41
c9 34 8 43 -6 57 -15 15 -18 15 -26 2 -5 -8 -12 -39 -16 -68 -3 -29 -15 -63
-25 -77 -30 -38 -154 -95 -206 -95 -48 0 -59 13 -49 55 5 19 13 25 34 25 67 1
162 74 162 125 0 25 -24 55 -43 55 -7 -1 -25 -8 -42 -17z m31 -58 c-17 -25
-96 -72 -96 -57 0 11 103 93 109 87 2 -3 -4 -16 -13 -30z"/>
<path d="M1254 1355 c-4 -8 -3 -27 1 -42 5 -22 4 -25 -8 -14 -12 9 -20 6 -41
-20 -60 -70 -73 -153 -31 -194 28 -29 56 -32 91 -9 27 18 74 91 74 115 0 11 9
14 34 11 18 -2 44 1 56 8 12 6 23 10 25 8 2 -2 -4 -38 -14 -80 -18 -76 -15
-98 14 -98 6 0 25 26 42 58 17 31 53 89 78 127 l46 70 -8 -65 c-18 -148 -2
-204 53 -184 29 10 72 60 61 70 -4 4 -18 -5 -32 -20 -30 -32 -59 -31 -63 3 -2
13 6 61 18 107 23 93 17 124 -23 124 -25 0 -57 -31 -102 -95 l-27 -40 6 32 c7
40 -19 67 -38 41 -15 -20 -58 -38 -92 -38 -21 0 -24 5 -24 35 0 42 -22 90 -45
99 -27 10 -45 7 -51 -9z m60 -57 c3 -17 4 -34 1 -37 -9 -8 -25 21 -25 47 0 33
17 27 24 -10z m-30 -120 c-36 -71 -94 -104 -94 -53 0 33 24 89 52 123 l23 28
21 -25 22 -26 -24 -47z"/>
<path d="M1265 790 l-30 -31 25 -19 c25 -19 25 -18 47 2 l23 21 24 -22 24 -22
28 25 29 25 -22 22 -23 23 -26 -25 -26 -24 -22 28 -22 27 -29 -30z"/>
<path d="M1495 727 c-21 -21 -39 -53 -49 -88 -27 -97 -24 -137 11 -179 24 -29
30 -31 65 -26 38 6 39 5 32 -16 -14 -47 -45 -99 -80 -134 -34 -33 -40 -36 -77
-30 l-41 7 20 -22 c16 -18 27 -20 72 -17 71 6 117 44 163 133 l35 70 51 1 c61
3 104 23 123 58 17 33 21 32 42 -3 27 -48 64 -66 138 -66 81 0 133 24 177 83
34 45 74 158 77 215 1 31 -1 32 -41 35 -39 3 -43 1 -49 -25 -15 -71 -57 -220
-65 -235 -12 -23 -35 -34 -87 -42 -37 -5 -46 -3 -67 18 -21 22 -25 34 -25 89
0 44 -5 68 -14 76 -19 16 -67 10 -77 -9 -4 -8 -21 -45 -38 -81 -31 -67 -57
-89 -106 -89 -32 0 -38 13 -25 60 17 63 14 167 -5 196 -18 27 -70 54 -106 54
-11 0 -36 -15 -54 -33z m133 -34 c6 -9 12 -37 11 -62 0 -40 -2 -43 -12 -27
-24 39 -57 67 -87 72 -35 8 -39 27 -7 41 27 12 77 0 95 -24z m-49 -69 c22 -28
30 -114 11 -114 -24 0 -79 30 -89 48 -12 23 -15 75 -4 85 16 17 62 6 82 -19z
m301 -70 c0 -26 -17 -33 -26 -9 -8 20 3 48 16 40 5 -3 10 -17 10 -31z m-313
-64 c13 0 32 4 42 10 16 8 19 4 24 -28 5 -27 2 -39 -8 -45 -9 -4 -26 -30 -40
-57 -24 -47 -45 -71 -45 -51 0 5 4 13 10 16 5 3 14 24 20 45 13 50 -2 80 -42
80 -35 0 -68 32 -68 65 l0 25 42 -30 c22 -16 52 -30 65 -30z"/>
<path d="M1277 663 c-3 -10 -11 -44 -18 -76 -12 -56 -47 -107 -73 -107 -6 0
-38 14 -71 30 -33 16 -70 30 -82 30 -33 0 -66 -36 -57 -63 9 -29 4 -27 72 -37
66 -9 121 -32 147 -60 15 -17 14 -19 -11 -39 -39 -30 -98 -44 -189 -44 -135 1
-215 35 -215 93 0 22 12 38 51 71 64 54 47 64 -22 13 -56 -41 -69 -65 -69
-129 0 -38 4 -47 33 -68 56 -41 96 -52 197 -52 116 0 181 18 227 61 33 31 35
37 30 80 -3 28 -13 54 -28 70 l-22 24 33 0 c48 0 94 40 130 114 41 82 38 100
-17 104 -33 2 -42 -1 -46 -15z"/>
<path d="M1744 359 l-28 -29 22 -22 22 -22 25 24 25 23 24 -22 24 -22 28 25
29 25 -22 22 -23 23 -26 -25 -26 -24 -23 27 -23 26 -28 -29z"/>
<path d="M2087 342 c-27 -28 -27 -29 -8 -46 18 -17 21 -17 45 -1 29 19 32 32
12 58 -17 22 -17 22 -49 -11z"/>
<path d="M2977 329 c-24 -14 -65 -97 -82 -171 -19 -80 -20 -158 -2 -158 8 0
13 17 15 53 3 82 31 183 64 228 31 44 34 64 5 48z"/>
<path d="M897 172 c-27 -28 -27 -29 -9 -45 23 -21 31 -21 52 -2 17 15 50 11
50 -6 0 -17 26 -9 48 14 20 22 20 22 1 46 l-20 24 -24 -23 -25 -23 -23 21 -23
22 -27 -28z"/>
<path d="M2423 149 c-33 -21 -73 -90 -73 -127 0 -36 18 -25 30 17 19 72 80
121 134 107 29 -7 50 -60 44 -112 -2 -19 0 -34 4 -34 14 0 9 100 -7 129 -24
47 -78 55 -132 20z"/>
</g>
</svg>
